<svg width="672" height="156" viewBox="0 0 672 156" fill="none" xmlns="http://www.w3.org/2000/svg">
<mask id="mask0_3150_15" style="mask-type:luminance" maskUnits="userSpaceOnUse" x="0" y="0" width="672" height="156">
<path d="M672 0H0V156H672V0Z" fill="white"/>
</mask>
<g mask="url(#mask0_3150_15)">
<path d="M0 77.0832V154.166H30.915H61.83V77.0832V0H30.915H0V77.0832Z" fill="black"/>
<path d="M238.374 55.8674V97.7353H251.797H265.22V87.326L265.302 76.9965L271.81 70.4238C275.389 66.8233 278.482 64.0061 278.563 64.1626C278.725 64.3191 282.793 71.9888 287.512 81.0661L296.135 97.7353H312.406C322.414 97.7353 328.679 97.4226 328.679 96.952C328.679 96.5611 321.682 84.8229 313.138 70.971C304.596 57.0412 297.6 45.4592 297.519 45.2245C297.437 44.9114 304.027 37.7902 312.244 29.3383L327.132 14H308.989H290.848L278.074 28.9471L265.22 43.8941V28.9471V14H251.797H238.374V55.8674Z" fill="black"/>
<path d="M461.288 55.8674V97.7353H472.677H484.067V93.4311V89.0489L486.671 91.9443C490.739 96.4048 496.271 98.517 503.593 98.517C516.61 98.517 524.99 91.2393 528.488 76.8401C530.115 70.1878 529.626 56.9629 527.594 51.0937C525.722 45.6941 521.084 39.9813 516.284 37.164C512.949 35.1294 511.402 34.8162 505.139 34.5032C497.084 34.112 492.447 35.2859 488.135 38.8073L485.695 40.7638V27.3818V14H473.491H461.288V55.8674ZM501.071 53.9893C502.128 54.9283 503.43 56.8847 504.081 58.2934C505.383 61.3453 505.545 69.5624 504.406 73.3974C502.291 80.4407 494.807 82.9437 489.844 78.1706C483.986 72.536 484.882 56.8847 491.309 53.5196C494.481 51.8763 498.875 52.0328 501.071 53.9893Z" fill="black"/>
<path d="M350.237 35.6775C343.159 38.1035 338.522 41.2338 334.86 46.0857C329.979 52.4246 328.352 58.4504 328.841 68.4669C329.411 79.1107 331.443 84.1183 338.034 90.458C344.785 96.9525 349.912 98.5175 363.986 98.5175C381.721 98.5175 389.288 95.3093 396.528 84.9016C397.667 83.2584 398.643 81.6138 398.643 81.3011C398.643 80.9884 393.356 80.2833 386.848 79.7361C375.376 78.7183 374.97 78.7183 373.179 80.2833C370.332 82.866 368.135 83.6493 364.149 83.6493C361.22 83.6493 359.918 83.1787 357.641 81.2229C356.095 79.9706 354.548 78.1711 354.305 77.3096C354.061 76.5279 353.654 75.1193 353.41 74.2578C353.003 72.6928 353.329 72.6928 376.596 72.6928H400.271V70.0319C400.271 63.8501 398.4 54.8506 396.284 50.3898C393.356 44.3641 388.963 40.2165 382.372 37.1645C377.329 34.895 376.515 34.7385 365.694 34.5037C356.42 34.3472 353.572 34.582 350.237 35.6775ZM370.575 50.9376C371.796 51.8768 373.342 53.7549 373.911 55.1636C376.108 60.2502 376.189 60.172 364.067 60.172C356.176 60.172 353.084 59.9372 353.084 59.2328C353.084 57.12 356.663 51.4855 358.616 50.3898C362.033 48.6682 367.89 48.903 370.575 50.9376Z" fill="black"/>
<path d="M438.998 35.8337C437.696 36.6946 435.581 38.8857 434.279 40.6857L432.001 43.9725V39.9813V35.9119H420.611H409.221V66.8233V97.7353H421.425H433.628V87.3261C433.709 66.9015 435.825 56.1023 440.299 53.8328C442.008 52.972 447.621 53.2068 449.98 54.2241C451.039 54.6153 451.852 53.5198 453.967 48.6679C455.431 45.3028 457.141 41.39 457.79 39.9813L458.93 37.3989L455.431 35.9119C450.631 33.7991 442.251 33.7991 438.998 35.8337Z" fill="black"/>
<path d="M559.322 35.6775C552.244 38.1035 547.608 41.2338 543.946 46.0857C539.064 52.4246 537.438 58.4504 537.926 68.4669C538.496 79.1107 540.53 84.1183 547.119 90.458C553.872 96.9525 558.997 98.5175 573.072 98.5175C590.807 98.5175 598.373 95.3093 605.615 84.9016C606.753 83.2584 607.73 81.6138 607.73 81.3011C607.73 80.9884 602.441 80.2833 595.933 79.7361C584.461 78.7183 584.055 78.7183 582.265 80.2833C579.417 82.866 577.221 83.6493 573.234 83.6493C570.305 83.6493 569.004 83.1787 566.726 81.2229C565.181 79.9706 563.635 78.1711 563.39 77.3096C563.147 76.5279 562.739 75.1193 562.496 74.2578C562.088 72.6928 562.414 72.6928 585.682 72.6928H609.357V70.0319C609.357 63.8501 607.485 54.8506 605.37 50.3898C602.441 44.3641 598.048 40.2165 591.458 37.1645C586.414 34.895 585.601 34.7385 574.779 34.5037C565.505 34.3472 562.658 34.582 559.322 35.6775ZM579.661 50.9376C580.882 51.8768 582.427 53.7549 582.997 55.1636C585.193 60.2502 585.274 60.172 573.153 60.172C565.262 60.172 562.169 59.9372 562.169 59.2328C562.169 57.12 565.75 51.4855 567.702 50.3898C571.119 48.6682 576.977 48.903 579.661 50.9376Z" fill="black"/>
<path d="M648.082 35.8337C646.78 36.6946 644.665 38.8857 643.363 40.6857L641.085 43.9725V39.9813V35.9119H629.694H618.305V66.8233V97.7353H630.509H642.712V87.3261C642.793 66.9015 644.908 56.1023 649.384 53.8328C651.092 52.972 656.705 53.2068 659.064 54.2241C660.122 54.6153 660.936 53.5198 663.051 48.6679C664.515 45.3028 666.224 41.39 666.875 39.9813L668.013 37.3989L664.515 35.9119C659.715 33.7991 651.335 33.7991 648.082 35.8337Z" fill="black"/>
<path d="M295.079 112.785C293.288 115.759 293.288 115.993 295.567 115.993C296.624 115.993 298.658 114.821 300.204 113.256L302.97 110.517H299.715C297.032 110.517 296.3 110.907 295.079 112.785Z" fill="black"/>
<path d="M238.374 125.385V139.471H243.255H248.135V134.854V130.238L253.912 129.923C259.037 129.689 259.932 129.376 261.641 127.499C263.268 125.699 263.594 124.447 263.594 120.612C263.594 116.386 263.349 115.602 261.234 113.568C258.875 111.298 258.794 111.298 248.623 111.298H238.374V125.385ZM253.831 119.594C254.888 120.533 254.888 120.846 253.831 121.786C253.18 122.333 251.633 123.038 250.414 123.351C248.218 123.82 248.135 123.742 248.135 120.612C248.135 117.482 248.218 117.403 250.414 117.951C251.633 118.185 253.18 118.968 253.831 119.594Z" fill="black"/>
<path d="M327.05 125.385V139.471H330.711H334.372L334.453 129.845L334.536 120.299L337.057 129.845L339.579 139.471H342.996H346.331L349.097 129.454L351.863 119.516L352.108 129.454L352.352 139.471H355.931H359.592V125.385V111.298H353.572H347.552L345.763 118.498C343.321 128.124 342.996 128.594 341.857 123.742C341.287 121.473 340.311 117.794 339.579 115.446L338.359 111.298H332.664H327.05V125.385Z" fill="black"/>
<path d="M391.322 125.385V139.471H395.39H399.456V125.385V111.298H395.39H391.322V125.385Z" fill="black"/>
<path d="M418.984 115.681C418.984 119.594 418.821 119.985 417.601 119.516C410.361 116.542 404.34 120.69 404.34 128.749C404.34 138.063 411.417 143.384 417.682 138.61C419.391 137.279 419.797 137.201 419.797 138.219C419.797 139.159 420.692 139.471 423.458 139.471H427.12V125.385V111.298H423.052H418.984V115.681ZM418.089 124.916C419.554 126.637 418.903 133.289 417.193 134.306C414.753 135.793 412.882 133.993 412.638 129.767C412.395 125.776 413.37 123.82 415.729 123.82C416.542 123.82 417.601 124.289 418.089 124.916Z" fill="black"/>
<path d="M472.677 115.681C472.677 119.594 472.515 119.985 471.294 119.516C464.053 116.542 458.033 120.69 458.033 128.749C458.033 138.063 465.111 143.384 471.375 138.61C473.083 137.279 473.491 137.201 473.491 138.219C473.491 139.159 474.385 139.471 477.151 139.471H480.812V125.385V111.298H476.745H472.677V115.681ZM471.781 124.916C473.247 126.637 472.596 133.289 470.887 134.306C468.447 135.793 466.575 133.993 466.332 129.767C466.087 125.776 467.064 123.82 469.423 123.82C470.236 123.82 471.294 124.289 471.781 124.916Z" fill="black"/>
<path d="M552.407 125.385V139.471H563.796H575.187V135.95V132.428H568.272H561.356V121.864V111.298H556.882H552.407V125.385Z" fill="black"/>
<path d="M583.973 113.334C580.88 114.821 580.067 115.681 580.067 117.167C580.067 118.576 579.661 119.125 578.44 119.125C577.138 119.125 576.814 119.672 576.814 121.864C576.814 124.054 577.138 124.603 578.44 124.603C579.905 124.603 580.067 125.15 580.067 130.472C580.067 135.714 580.312 136.654 582.101 138.297C583.565 139.784 584.948 140.254 587.552 140.254C592.19 140.254 593.247 139.549 592.596 136.654C592.271 134.854 591.701 134.306 590.4 134.306C588.773 134.385 588.609 133.915 588.365 129.454C588.122 124.681 588.203 124.603 590.237 124.603C592.026 124.603 592.271 124.289 592.271 121.864C592.271 119.516 592.026 119.125 590.318 119.125C588.447 119.125 588.284 118.734 588.041 115.29L587.796 111.455L583.973 113.334Z" fill="black"/>
<path d="M610.17 115.681C610.17 119.594 610.008 119.985 608.787 119.516C601.545 116.542 595.526 120.69 595.526 128.749C595.526 138.063 602.603 143.384 608.868 138.61C610.576 137.279 610.983 137.201 610.983 138.219C610.983 139.159 611.878 139.471 614.644 139.471H618.305V125.385V111.298H614.238H610.17V115.681ZM609.275 124.916C610.74 126.637 610.089 133.289 608.379 134.306C605.939 135.793 604.068 133.993 603.824 129.767C603.579 125.776 604.556 123.82 606.915 123.82C607.728 123.82 608.787 124.289 609.275 124.916Z" fill="black"/>
<path d="M276.772 120.065C275.227 121.552 274.982 121.63 274.982 120.456C274.982 119.36 274.25 119.125 271.321 119.125H267.661V129.298V139.472H271.729H275.797V134.15C275.797 127.89 277.016 125.072 280.027 124.76C282.711 124.447 284.909 120.221 283.037 119.047C281.084 117.873 278.644 118.264 276.772 120.065Z" fill="black"/>
<path d="M290.685 119.516C282.712 122.803 282.875 135.949 290.848 139.159C296.462 141.428 304.272 140.019 307.038 136.264C308.34 134.384 308.34 134.384 305.004 133.759C302.808 133.29 300.855 133.368 299.634 133.915C298.577 134.384 297.194 134.777 296.543 134.777C295.322 134.777 292.883 132.663 292.883 131.567C292.883 131.176 296.543 130.864 301.017 130.864C308.908 130.864 309.153 130.785 309.153 129.064C309.072 125.62 306.225 121.003 303.214 119.673C299.796 118.108 294.266 118.029 290.685 119.516ZM299.879 125.151C301.262 126.481 301.18 126.559 297.438 126.794C292.964 127.107 292.232 126.716 293.696 124.994C295.079 123.429 298.089 123.508 299.879 125.151Z" fill="black"/>
<path d="M369.6 119.594C361.709 123.351 361.709 135.324 369.6 138.924C375.213 141.507 382.453 139.941 385.871 135.48C386.929 133.993 387.416 132.116 387.416 129.298C387.416 126.481 386.929 124.603 385.871 123.117C382.453 118.656 374.97 117.09 369.6 119.594ZM378.304 124.994C378.874 125.698 379.363 127.577 379.363 129.298C379.363 132.741 378.061 134.777 375.783 134.777C373.424 134.777 371.796 132.585 371.796 129.298C371.796 124.682 375.783 122.021 378.304 124.994Z" fill="black"/>
<path d="M436.313 119.438C433.953 120.455 432.001 122.725 432.001 124.447C432.001 124.916 433.465 125.463 435.336 125.777C437.777 126.168 438.998 126.012 440.055 125.072C441.845 123.507 445.506 123.429 446.076 124.916C446.563 126.168 444.042 127.186 438.266 128.202C433.79 128.907 431.186 131.176 431.186 134.385C431.186 138.297 434.441 140.489 439.566 140.02C441.681 139.864 444.123 139.08 445.017 138.297C446.481 137.046 446.644 137.046 447.132 138.219C447.459 139.08 448.597 139.471 451.038 139.471H454.536L454.129 131.019C453.804 123.507 453.64 122.411 451.851 120.69C450.225 119.125 449.004 118.734 444.447 118.578C440.868 118.42 438.021 118.734 436.313 119.438ZM446.644 131.098C446.644 134.229 440.055 136.029 439.485 133.133C439.322 132.193 440.136 131.568 442.332 131.019C446.563 129.925 446.644 129.925 446.644 131.098Z" fill="black"/>
<path d="M490.82 119.594C482.929 123.351 482.929 135.324 490.82 138.924C496.434 141.507 503.674 139.941 507.091 135.48C508.149 133.993 508.636 132.116 508.636 129.298C508.636 126.481 508.149 124.603 507.091 123.117C503.674 118.656 496.19 117.09 490.82 119.594ZM499.525 124.994C500.094 125.698 500.583 127.577 500.583 129.298C500.583 132.741 499.281 134.777 497.004 134.777C494.643 134.777 493.017 132.585 493.017 129.298C493.017 124.682 497.004 122.021 499.525 124.994Z" fill="black"/>
<path d="M515.959 119.438C512.624 120.925 511.241 124.055 512.624 127.107C513.762 129.846 515.146 130.551 520.84 131.725C525.478 132.663 526.78 133.759 525.397 135.324C524.095 136.811 521.736 136.576 519.946 134.698C518.563 133.212 517.912 133.133 514.495 133.681L510.59 134.386L513.111 137.123C515.634 139.862 515.715 139.862 522.306 139.862C528.814 139.862 528.976 139.784 531.418 137.203C533.369 135.089 533.777 134.15 533.369 132.116C532.718 129.064 530.36 127.107 526.537 126.559C521.491 125.698 519.457 124.916 519.457 123.742C519.457 122.099 523.282 121.864 524.421 123.429C525.316 124.603 526.129 124.682 529.303 124.133L533.126 123.429L531.092 121.159C529.303 119.125 528.407 118.812 523.852 118.576C520.516 118.42 517.668 118.734 515.959 119.438Z" fill="black"/>
<path d="M627.499 119.438C625.139 120.455 623.186 122.725 623.186 124.447C623.186 124.916 624.652 125.463 626.522 125.777C628.964 126.168 630.183 126.012 631.241 125.072C633.03 123.507 636.692 123.429 637.262 124.916C637.749 126.168 635.228 127.186 629.451 128.202C624.977 128.907 622.373 131.176 622.373 134.385C622.373 138.297 625.628 140.489 630.753 140.02C632.868 139.864 635.309 139.08 636.204 138.297C637.668 137.046 637.831 137.046 638.319 138.219C638.645 139.08 639.783 139.471 642.225 139.471H645.723L645.316 131.019C644.991 123.507 644.827 122.411 643.038 120.69C641.41 119.125 640.191 118.734 635.634 118.578C632.055 118.42 629.207 118.734 627.499 119.438ZM637.831 131.098C637.831 134.229 631.241 136.029 630.672 133.133C630.509 132.193 631.323 131.568 633.519 131.019C637.749 129.925 637.831 129.925 637.831 131.098Z" fill="black"/>
<path d="M310.78 129.298V132.428H316.88H322.983V129.298V126.168H316.88H310.78V129.298Z" fill="black"/>
<path d="M650.035 135.558V139.471H654.509H658.983V135.558V131.646H654.509H650.035V135.558Z" fill="black"/>
<path d="M102.388 30.582L132.154 0H104.296H72V32.8932C72 42.8479 72.0425 51.8848 72.1059 58.4287C72.1164 59.5112 72.1275 60.5245 72.1389 61.4615C73.6303 59.9588 75.3991 58.1685 77.4004 56.136C83.8509 49.5852 92.6948 40.5421 102.388 30.582Z" fill="#FF0000" stroke="black" stroke-width="2"/>
<path d="M208.196 152.889C209.459 152.875 210.627 152.86 211.687 152.844C210.009 150.984 207.916 148.677 205.487 146.006C198.807 138.661 189.595 128.581 179.469 117.527C169.336 106.506 160.114 96.3948 153.421 88.9957C150.076 85.2971 147.358 82.2707 145.474 80.1449C144.533 79.0842 143.79 78.2363 143.278 77.6375C143.024 77.3418 142.809 77.0853 142.649 76.8856C142.573 76.7916 142.479 76.6724 142.393 76.5508C142.354 76.4966 142.276 76.3849 142.194 76.244C142.155 76.177 142.078 76.0413 142.002 75.8626L141.998 75.8541C141.954 75.7522 141.734 75.2414 141.734 74.5562C141.734 73.9415 141.908 73.4843 141.96 73.3509C142.035 73.1567 142.114 73.0083 142.158 72.9275C142.249 72.7629 142.338 72.6341 142.384 72.57C142.482 72.4298 142.588 72.2974 142.668 72.1992C142.839 71.9899 143.064 71.7294 143.322 71.4384C143.846 70.8477 144.601 70.0206 145.552 68.9937C147.46 66.935 150.209 64.0149 153.592 60.453C160.36 53.3259 169.69 43.5986 179.949 32.9832L179.953 32.9795L211.923 1.31187e-05L182.982 0L182.975 1.31187e-05L147.65 0.0779892L109.795 38.7043L109.791 38.7092L73.3076 76.0942L110.214 113.885L110.218 113.89L148.497 152.922L182.975 153H182.978C192.801 153 201.729 152.96 208.196 152.889Z" fill="#FF0000" stroke="black" stroke-width="2"/>
<path d="M72 120.137V153H105.002H133.462L103.093 122.461C103.093 122.461 103.092 122.461 103.093 122.461C93.1872 112.51 84.159 103.474 77.5776 96.9284C75.5047 94.8669 73.6763 93.0541 72.1408 91.5386C72.1289 92.4906 72.1174 93.5214 72.1068 94.6247C72.0429 101.163 72 110.191 72 120.137Z" fill="#FF0000"/>
<path d="M103.093 122.461L133.462 153H105.002H72V120.137C72 110.191 72.0429 101.163 72.1068 94.6247C72.1174 93.5214 72.1289 92.4906 72.1408 91.5386C73.6763 93.0541 75.5047 94.8669 77.5776 96.9284C84.159 103.474 93.1872 112.51 103.093 122.461ZM103.093 122.461C103.092 122.461 103.093 122.461 103.093 122.461Z" stroke="black" stroke-width="2"/>
</g>
</svg>
